<?xml version="1.0" encoding="UTF-8" standalone="no"?> <svg id="icons" xmlns="http://www.w3.org/2000/svg" xmlns:xlink="http://www.w3.org/1999/xlink" viewBox="0 0 340 340"><defs><linearGradient id="linear-gradient" x1="296.476" y1="178.912" x2="272.926" y2="206.482" gradientUnits="userSpaceOnUse"><stop offset="0" stop-color="#808eb5"/><stop offset="1" stop-color="#546b8e"/></linearGradient><linearGradient id="linear-gradient-2" x1="277.224" y1="194.158" x2="277.224" y2="232.002" gradientUnits="userSpaceOnUse"><stop offset="0" stop-color="#d3ddea"/><stop offset="0.996" stop-color="#a7b8c9"/></linearGradient><linearGradient id="linear-gradient-3" x1="270.196" y1="191.99" x2="267.473" y2="222.846" xlink:href="#linear-gradient"/><linearGradient id="linear-gradient-4" x1="211.834" y1="169.296" x2="211.834" y2="230.701" xlink:href="#linear-gradient"/><linearGradient id="linear-gradient-6" x1="129.97" y1="121.056" x2="110.912" y2="185.491" xlink:href="#linear-gradient"/><linearGradient id="linear-gradient-7" x1="109.145" y1="114.896" x2="90.087" y2="179.332" xlink:href="#linear-gradient"/><linearGradient id="linear-gradient-8" x1="170.067" y1="105.592" x2="131.414" y2="122.645" xlink:href="#linear-gradient-2"/><linearGradient id="linear-gradient-9" x1="118.423" y1="117.64" x2="99.364" y2="182.076" xlink:href="#linear-gradient"/><linearGradient id="linear-gradient-10" x1="134.294" y1="143.396" x2="134.294" y2="235.48" xlink:href="#linear-gradient-2"/><linearGradient id="linear-gradient-11" x1="113.348" y1="143.396" x2="113.348" y2="235.48" xlink:href="#linear-gradient-2"/><linearGradient id="linear-gradient-12" x1="173.548" y1="179.597" x2="121.516" y2="216.504" xlink:href="#linear-gradient"/><linearGradient id="linear-gradient-13" x1="180.794" y1="189.813" x2="128.762" y2="226.719" xlink:href="#linear-gradient"/><linearGradient id="linear-gradient-14" x1="79.185" y1="198.376" x2="50.144" y2="233.165" xlink:href="#linear-gradient"/><linearGradient id="linear-gradient-15" x1="257.244" y1="219.731" x2="-30.712" y2="302.123" xlink:href="#linear-gradient-2"/><linearGradient id="linear-gradient-16" x1="290.936" y1="224.336" x2="260.079" y2="253.68" xlink:href="#linear-gradient"/><linearGradient id="linear-gradient-17" x1="209.43" y1="203.553" x2="88.765" y2="344.819" xlink:href="#linear-gradient"/></defs><path d="M303.1,178.159l-7.292-6.1a1.522,1.522,0,0,0-2.143.191l-23.223,27.764,9.625,8.051L303.3,180.3A1.521,1.521,0,0,0,303.1,178.159Z" style="fill:url(#linear-gradient)"/><path d="M289.351,208.848h0v-6.375a7.916,7.916,0,0,0-7.917-7.917s-6.573.01-10.988.031l-5.35,24.505,9.15,7.981h15.105V208.848Z" style="fill:url(#linear-gradient-2)"/><path d="M277.208,221.6c-7.11-.768-6.762-9.414-6.762-9.414v-17.6c-2.152.011-3.793.023-3.906.038l-.007.01a7.913,7.913,0,0,0-6.856,7.838v24.6h14.569Z" style="fill:url(#linear-gradient-3)"/><path d="M190.521,167.575h32.085a10.542,10.542,0,0,1,10.541,10.541v35.639a114.272,114.272,0,0,1-42.625,1.732Z" style="fill:url(#linear-gradient-4)"/><circle cx="206.973" cy="185.15" r="3.538" style="fill:#34363a"/><circle cx="207.047" cy="198.094" r="3.538" style="fill:#34363a"/><path d="M233.146,213.755c-12.684,1.734-36.114,1.713-42.625,1.732v13.125h42.625Z" style="fill:url(#linear-gradient-4)"/><polygon points="131.623 187.04 131.623 178.39 103.906 156.955 131.623 148.467 131.623 137.351 108.958 120.525 106.952 127.648 127.219 142.638 100.434 150.789 97.605 160.829 131.623 187.04" style="fill:url(#linear-gradient-6)"/><polygon points="86.16 182.718 104.495 116.076 111.269 117.072 92.694 185.06 86.16 182.718" style="fill:url(#linear-gradient-7)"/><path d="M161.975,122.617h-32.8l.069-13.082h32.727a6.542,6.542,0,0,1,6.541,6.541h0A6.542,6.542,0,0,1,161.975,122.617Z" style="fill:url(#linear-gradient-8)"/><path d="M131.623,109.535H111.036a6.541,6.541,0,1,0,0,13.082h20.587Z" style="fill:url(#linear-gradient-9)"/><path d="M140.661,182.718l-12.734,3.389V72a1.487,1.487,0,0,1,2.866-.563A37.119,37.119,0,0,0,137.271,82.2a13.316,13.316,0,0,1,3.39,8.828Z" style="fill:url(#linear-gradient-10)"/><path d="M192.039,190.841l-14.1,4.028V142.186h6.6a7.5,7.5,0,0,1,7.5,7.5Z" style="fill:#34363a"/><polygon points="140.661 230.44 86.034 215.489 86.034 182.718 140.661 182.718 140.661 230.44" style="fill:url(#linear-gradient-11)"/><rect x="140.661" y="190.841" width="51.378" height="39.599" style="fill:#34363a"/><polygon points="140.661 227.298 140.661 218.207 119.674 215.489 86.034 215.489 86.034 230.44 138.781 230.44 140.661 227.298" style="fill:url(#linear-gradient-12)"/><path d="M125.431,204.65h29.852A7.717,7.717,0,0,1,163,212.366v16.246a0,0,0,0,1,0,0H117.714a0,0,0,0,1,0,0V212.366A7.717,7.717,0,0,1,125.431,204.65Z" style="fill:url(#linear-gradient-13)"/><path d="M27.762,246.808V230.66a6.6,6.6,0,0,1,6.6-6.6H65.226v22.746Z" style="fill:url(#linear-gradient-14)"/><path d="M17.287,255.635a67.377,67.377,0,0,0-3.952-7.011,2.918,2.918,0,0,1,2.459-4.492H38.985a15.521,15.521,0,0,0,11.066-4.638l15.175-15.432H201.032s79.755,2.668,121.77-20.745a2.916,2.916,0,0,1,4.12,3.624l-18.1,48.641Q161.638,262.685,17.287,255.635Z" style="fill:url(#linear-gradient-15)"/><circle cx="277.208" cy="237.391" r="8.779" style="fill:url(#linear-gradient-16)"/><path d="M306.565,261.653l2.259-6.071H17.26a64.961,64.961,0,0,1,2.612,6.116,11.972,11.972,0,0,0,11.263,7.794h264.15A12.034,12.034,0,0,0,306.565,261.653Z" style="fill:url(#linear-gradient-17)"/></svg>